<mxfile host="Electron" modified="2024-06-02T20:04:58.006Z" agent="Mozilla/5.0 (Windows NT 10.0; Win64; x64) AppleWebKit/537.36 (KHTML, like Gecko) draw.io/24.4.8 Chrome/124.0.6367.207 Electron/30.0.6 Safari/537.36" etag="-qYigoa2tkxbEbGCWej8" version="24.4.8" type="device">
  <diagram name="Страница — 1" id="LcgS3ZTkosHEVef-J3pK">
    <mxGraphModel dx="842" dy="568" grid="1" gridSize="10" guides="1" tooltips="1" connect="1" arrows="1" fold="1" page="1" pageScale="1" pageWidth="827" pageHeight="1169" math="0" shadow="0">
      <root>
        <mxCell id="0" />
        <mxCell id="1" parent="0" />
        <mxCell id="gkHV6Eb-_itA2Q4TGe-E-1" value="" style="rounded=0;whiteSpace=wrap;html=1;fillColor=#d5e8d4;strokeColor=#82b366;" vertex="1" parent="1">
          <mxGeometry x="289" y="210" width="250" height="180" as="geometry" />
        </mxCell>
        <mxCell id="gkHV6Eb-_itA2Q4TGe-E-2" value="Преподаватель" style="shape=umlActor;verticalLabelPosition=bottom;verticalAlign=top;html=1;outlineConnect=0;" vertex="1" parent="1">
          <mxGeometry x="180" y="290" width="30" height="60" as="geometry" />
        </mxCell>
        <mxCell id="gkHV6Eb-_itA2Q4TGe-E-3" value="Студент" style="shape=umlActor;verticalLabelPosition=bottom;verticalAlign=top;html=1;outlineConnect=0;" vertex="1" parent="1">
          <mxGeometry x="620" y="290" width="30" height="60" as="geometry" />
        </mxCell>
        <mxCell id="gkHV6Eb-_itA2Q4TGe-E-5" value="Сгенерировать задачи" style="ellipse;whiteSpace=wrap;html=1;fillColor=#ffe6cc;strokeColor=#d79b00;" vertex="1" parent="1">
          <mxGeometry x="414" y="240" width="120" height="40" as="geometry" />
        </mxCell>
        <mxCell id="gkHV6Eb-_itA2Q4TGe-E-6" value="Посмотреть результаты" style="ellipse;whiteSpace=wrap;html=1;fillColor=#ffe6cc;strokeColor=#d79b00;" vertex="1" parent="1">
          <mxGeometry x="354" y="340" width="120" height="40" as="geometry" />
        </mxCell>
        <mxCell id="gkHV6Eb-_itA2Q4TGe-E-7" value="Проверить задачи" style="ellipse;whiteSpace=wrap;html=1;fillColor=#ffe6cc;strokeColor=#d79b00;" vertex="1" parent="1">
          <mxGeometry x="414" y="290" width="120" height="40" as="geometry" />
        </mxCell>
        <mxCell id="gkHV6Eb-_itA2Q4TGe-E-8" value="Задать систему знаний" style="ellipse;whiteSpace=wrap;html=1;fillColor=#ffe6cc;strokeColor=#d79b00;" vertex="1" parent="1">
          <mxGeometry x="294" y="270" width="120" height="40" as="geometry" />
        </mxCell>
        <mxCell id="gkHV6Eb-_itA2Q4TGe-E-9" value="Генератор задач" style="text;html=1;align=center;verticalAlign=middle;whiteSpace=wrap;rounded=0;" vertex="1" parent="1">
          <mxGeometry x="366" y="210" width="96" height="30" as="geometry" />
        </mxCell>
        <mxCell id="gkHV6Eb-_itA2Q4TGe-E-10" value="" style="endArrow=none;html=1;rounded=0;exitX=0.5;exitY=0.5;exitDx=0;exitDy=0;exitPerimeter=0;entryX=0;entryY=0.5;entryDx=0;entryDy=0;" edge="1" parent="1" source="gkHV6Eb-_itA2Q4TGe-E-2" target="gkHV6Eb-_itA2Q4TGe-E-8">
          <mxGeometry width="50" height="50" relative="1" as="geometry">
            <mxPoint x="300" y="420" as="sourcePoint" />
            <mxPoint x="350" y="370" as="targetPoint" />
          </mxGeometry>
        </mxCell>
        <mxCell id="gkHV6Eb-_itA2Q4TGe-E-11" value="" style="endArrow=none;html=1;rounded=0;exitX=0.5;exitY=0.5;exitDx=0;exitDy=0;exitPerimeter=0;entryX=0;entryY=0.5;entryDx=0;entryDy=0;" edge="1" parent="1" source="gkHV6Eb-_itA2Q4TGe-E-2" target="gkHV6Eb-_itA2Q4TGe-E-6">
          <mxGeometry width="50" height="50" relative="1" as="geometry">
            <mxPoint x="205" y="330" as="sourcePoint" />
            <mxPoint x="304" y="300" as="targetPoint" />
          </mxGeometry>
        </mxCell>
        <mxCell id="gkHV6Eb-_itA2Q4TGe-E-12" value="" style="endArrow=none;html=1;rounded=0;exitX=1;exitY=0.5;exitDx=0;exitDy=0;entryX=0.5;entryY=0.5;entryDx=0;entryDy=0;entryPerimeter=0;" edge="1" parent="1" source="gkHV6Eb-_itA2Q4TGe-E-6" target="gkHV6Eb-_itA2Q4TGe-E-3">
          <mxGeometry width="50" height="50" relative="1" as="geometry">
            <mxPoint x="205" y="330" as="sourcePoint" />
            <mxPoint x="364" y="370" as="targetPoint" />
          </mxGeometry>
        </mxCell>
        <mxCell id="gkHV6Eb-_itA2Q4TGe-E-13" value="" style="endArrow=none;html=1;rounded=0;exitX=1;exitY=0.5;exitDx=0;exitDy=0;entryX=0.5;entryY=0.5;entryDx=0;entryDy=0;entryPerimeter=0;" edge="1" parent="1" source="gkHV6Eb-_itA2Q4TGe-E-7" target="gkHV6Eb-_itA2Q4TGe-E-3">
          <mxGeometry width="50" height="50" relative="1" as="geometry">
            <mxPoint x="484" y="370" as="sourcePoint" />
            <mxPoint x="645" y="330" as="targetPoint" />
          </mxGeometry>
        </mxCell>
        <mxCell id="gkHV6Eb-_itA2Q4TGe-E-15" value="" style="endArrow=none;html=1;rounded=0;exitX=1;exitY=0.5;exitDx=0;exitDy=0;entryX=0.5;entryY=0.5;entryDx=0;entryDy=0;entryPerimeter=0;" edge="1" parent="1" source="gkHV6Eb-_itA2Q4TGe-E-5" target="gkHV6Eb-_itA2Q4TGe-E-3">
          <mxGeometry width="50" height="50" relative="1" as="geometry">
            <mxPoint x="544" y="320" as="sourcePoint" />
            <mxPoint x="645" y="330" as="targetPoint" />
          </mxGeometry>
        </mxCell>
      </root>
    </mxGraphModel>
  </diagram>
</mxfile>
